<svg width="411" height="290" viewBox="0 0 411 290" fill="none" xmlns="http://www.w3.org/2000/svg">
<path d="M205.142 150.916C203.848 152.067 204.226 152.924 205.972 154.624C207.718 156.323 210.61 157.794 211.905 156.643C213.199 155.492 211.14 153.946 209.394 152.246C207.648 150.547 206.436 149.765 205.142 150.916Z" fill="#687D31"/>
<path d="M215.043 137.801C213.377 139.491 216.83 142.632 219.437 144.71C222.044 146.788 225.303 149.54 226.969 147.85C228.636 146.16 225.81 143.019 223.203 140.941C220.596 138.864 216.71 136.111 215.043 137.801Z" fill="#687D31"/>
<path d="M210.09 141.844C208.173 143.875 211.597 146.087 214.562 148.675C217.526 151.264 219.604 153.404 221.52 151.372C223.437 149.34 220.188 146.929 217.223 144.341C214.258 141.752 212.007 139.812 210.09 141.844Z" fill="#687D31"/>
<path d="M206.451 146.183C204.927 148.376 206.917 149.015 209.751 151.53C212.584 154.044 215.131 156.234 216.655 154.042C218.179 151.849 215.722 150.904 212.889 148.389C210.056 145.874 207.975 143.991 206.451 146.183Z" fill="#687D31"/>
<path d="M201.861 118.959H186.169L174.242 129.008L178.008 139.057C178.614 140.29 179.892 141.569 180.519 141.569C181.147 141.569 184.286 139.057 185.541 139.685C186.796 140.313 188.052 144.082 189.307 144.082C190.563 144.082 191.818 142.826 191.818 142.826L204.372 154.131L220.065 137.173L210.649 129.636H206.255C206.255 129.636 200.606 134.033 199.35 134.661C198.095 135.289 196.84 135.289 196.212 135.289C195.584 135.289 191.818 132.776 191.818 132.148C191.818 131.52 191.19 130.264 191.818 129.008C192.446 127.752 202.489 118.959 201.861 118.959Z" fill="#19350C"/>
<path d="M186.737 143.319C187.99 144.518 187.329 147.033 185.639 148.802C183.948 150.572 181.085 152.054 179.832 150.856C178.579 149.658 179.554 146.803 181.245 145.034C182.936 143.264 185.484 142.121 186.737 143.319Z" fill="#687D31"/>
<path d="M202.994 155.943C204.247 157.141 203.254 159.372 201.563 161.142C199.873 162.911 197.342 164.05 196.089 162.852C194.837 161.653 196.404 159.04 198.095 157.271C199.786 155.502 201.741 154.744 202.994 155.943Z" fill="#687D31"/>
<path d="M193.748 146.628C195.186 148.383 193.503 151.198 191.215 153.457C188.926 155.715 186.376 157.724 184.937 155.969C183.499 154.214 185.443 150.984 187.732 148.725C190.02 146.467 192.31 144.874 193.748 146.628Z" fill="#687D31"/>
<path d="M198.715 150.934C200.174 152.407 198.925 155.3 196.957 157.476C194.988 159.651 192.555 161.328 191.097 159.854C189.638 158.381 191.423 155.405 193.391 153.23C195.359 151.055 197.256 149.46 198.715 150.934Z" fill="#687D31"/>
<path d="M233.891 142.466C230.263 144.661 213.204 126.837 211.279 125.869C209.355 124.901 206.752 127.143 205.002 128.381C201.896 130.58 195.76 136.27 195.587 130.894C195.414 125.517 203.745 120.215 203.745 120.215C203.745 120.215 205.63 118.96 206.886 118.332C208.141 117.704 210.315 117.696 212.535 117.704C216.285 117.718 218.84 118.634 222.576 118.959C225.506 119.214 228.855 118.96 229.483 119.588L239.455 129.009C238.827 131.522 237.519 140.271 233.891 142.466Z" fill="#687D31"/>
<path d="M242.034 265.298C199.208 215.095 166.015 200.734 98.29 193.699L96.4069 186.79C175.677 188.875 212.585 203.347 263.376 255.752L242.034 265.298Z" fill="url(#paint0_linear_46_972)"/>
<path d="M98.9177 196.211L101.429 203.12C143.528 208.5 166.96 223.972 206.255 268.439L219.437 267.183L231.363 265.926C180.79 212.765 150.746 199.091 98.9177 196.211Z" fill="url(#paint1_linear_46_972)"/>
<path d="M102.056 206.26L107.706 215.681C137.019 232.446 157.922 255.877 157.922 258.39C157.922 260.902 160.433 260.274 162.944 260.902C165.454 261.53 193.073 267.183 193.073 267.183C159.725 227.954 139.853 214.202 102.056 206.26Z" fill="url(#paint2_linear_46_972)"/>
<path d="M207.511 207.516C241.137 182.995 265.361 177.27 316.731 179.253L316.104 184.278C273.037 183.699 249.767 190.594 225.714 218.193L207.511 207.516Z" fill="url(#paint3_linear_46_972)"/>
<path d="M314.848 191.187L315.476 186.79C275.696 185.926 257.167 193.113 231.991 221.962L247.684 234.523C266.517 206.354 282.822 196.936 314.848 191.187Z" fill="url(#paint4_linear_46_972)"/>
<path d="M310.794 203.12L313.593 196.211C286.975 200.09 274.178 209.665 252.705 238.92L268.738 252.109C279.015 226.179 286.106 213.111 310.794 203.12Z" fill="url(#paint5_linear_46_972)"/>
<path d="M280.324 244.572C278.901 238.206 292.075 214.707 307.943 210.657L296.017 228.242L280.324 244.572Z" fill="#B68723"/>
<path d="M267.143 178.144C286.601 154.759 317.359 150.99 324.264 177.516L267.143 178.144Z" fill="#A0AF86"/>
<path d="M203.744 205.004C167.583 187.77 142.808 182.859 93.8961 184.278L92.6406 179.253C119.874 163.929 140.056 164.584 174.87 182.394C192.975 188.969 203.683 190.383 223.203 191.187L203.744 205.004Z" fill="#A0AF86"/>
<path d="M332.424 167.32C332.424 230.104 275.655 281 205.628 281C135.6 281 78.8311 230.104 78.8311 167.32C78.8311 104.536 135.6 53.6401 205.628 53.6401C275.655 53.6401 332.424 104.536 332.424 167.32ZM94.4568 167.32C94.4568 222.367 144.23 266.991 205.628 266.991C267.025 266.991 316.798 222.367 316.798 167.32C316.798 112.273 267.025 67.6494 205.628 67.6494C144.23 67.6494 94.4568 112.273 94.4568 167.32Z" fill="url(#paint6_linear_46_972)"/>
<path d="M235.084 39.6351C231.226 44.3432 229.94 47.6206 220.294 49.8718H210.649V42.0922L211.935 37.7922C215.793 31.4435 219.651 30.1906 224.152 28.5782C229.939 26.505 233.798 27.3495 237.013 27.9638C237.013 32.2638 236.37 36.9719 235.084 39.6351Z" fill="#658325"/>
<path d="M220.279 40.6066C220.54 40.3782 220.936 40.4045 221.164 40.6654C221.393 40.9265 221.366 41.3227 221.106 41.5511L211.062 50.344C210.801 50.5724 210.405 50.5461 210.177 50.2851C209.949 50.0241 209.975 49.6279 210.236 49.3995L220.279 40.6066Z" fill="black" fill-opacity="0.8"/>
<path d="M210.649 47.3595V49.8718L201.861 49.8717V47.3595H210.649Z" fill="#658325"/>
<path d="M208.138 36.6824V48.6156H205.628V36.6824H208.138Z" fill="#658325"/>
<path d="M178.682 39.6351C182.54 44.3432 183.826 47.6206 193.471 49.8718H203.117V42.0922L201.831 37.7922C197.973 31.4435 194.115 30.1906 189.613 28.5782C183.826 26.505 179.968 27.3495 176.753 27.9638C176.753 32.2638 177.396 36.9719 178.682 39.6351Z" fill="#658325"/>
<path d="M193.487 40.6066C193.226 40.3782 192.83 40.4045 192.601 40.6654C192.373 40.9265 192.399 41.3227 192.66 41.5511L202.704 50.344C202.964 50.5724 203.36 50.5461 203.589 50.2851C203.817 50.0241 203.791 49.6279 203.53 49.3995L193.487 40.6066Z" fill="black" fill-opacity="0.8"/>
<path d="M213.246 17.5798C214.101 23.1882 215.092 27.8349 211.868 33.3845L209.94 35.8255L206.877 38.2086L201.854 33.5111L201.041 32.0176C199.161 27.0165 198.56 21.4702 199.856 18.1619C201.669 13.5374 202.949 11.3357 206.928 9C209.963 11.061 212.227 15.2221 213.246 17.5798Z" fill="#658325"/>
<path d="M206.04 27.0578C206.034 26.7111 206.309 26.4241 206.655 26.4174C207.002 26.4109 207.288 26.687 207.294 27.0337L207.505 38.1964C207.511 38.5431 207.235 38.8294 206.889 38.836C206.542 38.8425 206.255 38.5673 206.249 38.2206L206.04 27.0578Z" fill="black" fill-opacity="0.8"/>
<path d="M98.29 59.9208C117.859 59.9208 133.998 74.6103 136.297 93.5702C155.62 95.2665 173.521 104.349 186.088 118.84L173.933 128.854C164.11 117.526 150.121 110.422 135.019 109.082C130.343 124.957 115.671 136.545 98.29 136.545C77.143 136.545 60 119.392 60 98.2328C60 77.0737 77.143 59.9208 98.29 59.9208Z" fill="#648125"/>
<path d="M99.2343 108.997C96.9042 108.997 94.7966 107.987 92.9705 105.995C92.789 105.797 92.8019 105.489 93.0002 105.307C93.1981 105.126 93.5061 105.139 93.6871 105.337C95.3219 107.12 97.1886 108.024 99.2347 108.024C101.578 108.024 103.521 106.483 104.739 105.19C104.923 104.995 105.231 104.986 105.426 105.17C105.622 105.354 105.63 105.662 105.446 105.858C103.511 107.912 101.364 108.997 99.2343 108.997Z" fill="white"/>
<path d="M108.333 117.127H90.409C90.1401 117.127 89.9226 116.909 89.9226 116.641V107.88C89.9226 107.611 90.1401 107.393 90.409 107.393C90.6779 107.393 90.8953 107.611 90.8953 107.88V116.154H107.847V107.674C107.847 107.405 108.065 107.187 108.334 107.187C108.603 107.187 108.82 107.405 108.82 107.674V116.641C108.82 116.909 108.602 117.127 108.333 117.127Z" fill="white"/>
<path d="M83.1979 122.899C82.929 122.899 82.7115 122.681 82.7115 122.413V116.64C82.7115 116.372 82.929 116.154 83.1979 116.154H85.5958V109.734C85.5958 109.466 85.8132 109.248 86.0821 109.248C86.351 109.248 86.5684 109.466 86.5684 109.734V116.64C86.5684 116.909 86.351 117.127 86.0821 117.127H83.6842V122.412C83.6842 122.681 83.4668 122.899 83.1979 122.899Z" fill="white"/>
<path d="M115.34 122.899C115.071 122.899 114.854 122.681 114.854 122.413V117.128H112.661C112.392 117.128 112.175 116.91 112.175 116.641V109.529C112.175 109.26 112.392 109.042 112.661 109.042C112.93 109.042 113.147 109.26 113.147 109.529V116.154H115.34C115.609 116.154 115.826 116.372 115.826 116.641V122.413C115.826 122.681 115.608 122.899 115.34 122.899Z" fill="white"/>
<path d="M101.319 111.767H96.9995C93.9301 111.767 91.6156 109.589 91.6156 106.7C91.6156 106.431 91.833 106.213 92.1019 106.213C92.3708 106.213 92.5882 106.431 92.5882 106.7C92.5882 109.034 94.4843 110.794 96.9994 110.794H101.319C103.806 110.794 105.83 108.831 105.83 106.419C105.83 106.151 106.047 105.933 106.316 105.933C106.585 105.933 106.802 106.151 106.802 106.419C106.802 109.368 104.342 111.767 101.319 111.767Z" fill="white"/>
<path d="M99.6717 90.0338C99.243 90.0338 98.813 90.0312 98.3844 90.0245C92.6184 89.9397 86.9225 89.525 86.8645 89.521C86.5965 89.5015 86.396 89.2679 86.4155 88.9998C86.4355 88.7311 86.6666 88.5309 86.9364 88.5504C86.9932 88.5544 92.6619 88.9674 98.3983 89.0517C104.422 89.145 110.696 88.5575 110.76 88.5518C111.031 88.5274 111.265 88.7232 111.291 88.9909C111.316 89.2582 111.119 89.4962 110.852 89.521C110.793 89.525 105.327 90.0338 99.6717 90.0338Z" fill="white"/>
<path d="M99.3718 93.5585C96.3717 93.5585 92.8169 93.4386 88.8073 93.2024C88.5388 93.1864 88.3347 92.956 88.3498 92.6883C88.3653 92.4201 88.6049 92.2154 88.8636 92.2305C92.8551 92.4658 96.3894 92.5848 99.3709 92.5848C102.342 92.5848 105.862 92.4578 109.833 92.207C110.108 92.1914 110.333 92.3935 110.349 92.6616C110.366 92.9298 110.163 93.1616 109.895 93.178C105.904 93.4311 102.363 93.5585 99.3718 93.5585Z" fill="white"/>
<path d="M122.401 123.683H73.4125C73.156 123.683 72.9128 123.569 72.7495 123.371C72.5871 123.173 72.521 122.912 72.5698 122.66C73.1072 119.906 74.4721 113.39 75.5331 112.356C75.6081 112.283 75.6955 112.224 75.7918 112.183L90.6752 105.747C88.789 103.292 87.8756 100.476 87.5313 99.1951C86.426 98.4518 85.9952 96.4898 85.9717 94.8834C85.9641 94.4128 85.9907 93.9999 86.0502 93.6438L74.0237 92.4841C73.6031 92.4433 73.2747 92.1027 73.249 91.6814C73.2232 91.26 73.5081 90.8822 73.9208 90.7903L85.9189 88.1418C85.9308 86.1537 86.292 80.6282 89.7208 77.0016C91.7678 74.8362 94.538 73.7383 97.9531 73.7383C101.365 73.7383 104.165 74.8345 106.271 76.9958C109.82 80.6365 110.334 86.1971 110.401 88.1507L121.286 90.7934C121.692 90.8919 121.969 91.2702 121.94 91.688C121.91 92.1062 121.584 92.4415 121.168 92.4827L110.09 93.5759C110.139 93.8503 110.169 94.1588 110.18 94.502C110.221 95.8287 109.932 98.3164 108.647 99.1786C108.155 100.999 106.982 103.485 105.257 105.612L120.435 112.147C120.518 112.183 120.595 112.232 120.662 112.291C121.803 113.295 122.774 119.247 123.252 122.706C123.286 122.953 123.212 123.201 123.049 123.388C122.885 123.576 122.649 123.683 122.401 123.683ZM74.4598 121.966H121.41C120.871 118.347 120.078 114.465 119.566 113.645L103.497 106.726C103.24 106.615 103.053 106.386 102.996 106.111C102.938 105.836 103.019 105.551 103.211 105.348C105.28 103.15 106.663 100.205 107.072 98.3986C107.141 98.0926 107.372 97.8489 107.674 97.7623C107.728 97.7428 107.93 97.5585 108.128 96.9915C108.56 95.751 108.525 94.0727 108.329 93.5839C108.059 93.4237 107.89 93.1222 107.91 92.7941C107.935 92.3727 108.263 92.0313 108.683 91.99L115.968 91.2712L109.349 89.6644C108.957 89.5694 108.684 89.2124 108.694 88.8088C108.695 88.7417 108.805 82.0485 105.038 78.1903C103.266 76.3761 100.882 75.4566 97.9542 75.4566C95.033 75.4566 92.6843 76.3716 90.9755 78.1765C87.3306 82.025 87.6453 88.7156 87.6488 88.7825C87.671 89.2021 87.3866 89.5777 86.9766 89.6683L79.6007 91.2964L87.41 92.0494C87.8152 92.0885 88.1373 92.4068 88.1817 92.8109C88.2168 93.1296 88.0717 93.4333 87.8196 93.6092C87.6204 94.1153 87.6119 95.9418 88.0863 97.1362C88.2776 97.6166 88.4613 97.7662 88.5105 97.7804C88.806 97.867 89.0319 98.1045 89.1034 98.4042C89.3456 99.4103 90.3201 102.896 92.7078 105.498C92.8955 105.702 92.9727 105.986 92.9146 106.258C92.856 106.53 92.6709 106.757 92.4154 106.867L76.6697 113.674C76.1758 114.487 75.2026 118.345 74.4598 121.966Z" fill="white"/>
<path d="M88.4517 121.147C87.5394 121.147 86.7978 120.404 86.7978 119.492C86.7978 118.579 87.5398 117.837 88.4517 117.837C89.364 117.837 90.1055 118.579 90.1055 119.492C90.1055 120.404 89.3641 121.147 88.4517 121.147ZM88.4517 118.81C88.0763 118.81 87.7705 119.116 87.7705 119.492C87.7705 119.867 88.0763 120.173 88.4517 120.173C88.8271 120.173 89.1328 119.867 89.1328 119.492C89.1328 119.116 88.8271 118.81 88.4517 118.81Z" fill="white"/>
<path d="M110.497 121.147C109.586 121.147 108.844 120.404 108.844 119.492C108.844 118.579 109.586 117.837 110.497 117.837C111.41 117.837 112.151 118.579 112.151 119.492C112.152 120.404 111.409 121.147 110.497 121.147ZM110.497 118.81C110.122 118.81 109.817 119.116 109.817 119.492C109.817 119.867 110.122 120.173 110.497 120.173C110.873 120.173 111.179 119.867 111.179 119.492C111.179 119.116 110.873 118.81 110.497 118.81Z" fill="white"/>
<path d="M311.71 59.9208C332.857 59.921 350 77.0738 350 98.2328C350 119.392 332.857 136.545 311.71 136.545C294.917 136.545 280.651 125.728 275.487 110.678C262.23 112.538 250.012 118.854 240.956 128.553L229.19 118.108C240.812 105.661 256.51 97.5766 273.535 95.2397C275.061 75.4795 291.57 59.9208 311.71 59.9208Z" fill="#174420"/>
<path d="M309.513 114.877C309.513 114.377 309.314 113.898 308.961 113.544C308.608 113.191 308.129 112.992 307.63 112.992C307.13 112.992 306.651 113.191 306.298 113.544C305.945 113.898 305.746 114.377 305.746 114.877C305.746 115.376 305.945 115.855 306.298 116.209C306.651 116.562 307.13 116.761 307.63 116.761C308.129 116.761 308.608 116.562 308.961 116.209C309.314 115.855 309.513 115.376 309.513 114.877ZM328.344 114.877C328.344 114.377 328.145 113.898 327.792 113.544C327.439 113.191 326.96 112.992 326.461 112.992C325.961 112.992 325.482 113.191 325.129 113.544C324.776 113.898 324.578 114.377 324.578 114.877C324.578 115.376 324.776 115.855 325.129 116.209C325.482 116.562 325.961 116.761 326.461 116.761C326.96 116.761 327.439 116.562 327.792 116.209C328.145 115.855 328.344 115.376 328.344 114.877ZM311.396 114.877C311.396 115.876 310.999 116.834 310.292 117.541C309.586 118.248 308.628 118.645 307.63 118.645C306.631 118.645 305.673 118.248 304.967 117.541C304.26 116.834 303.863 115.876 303.863 114.877C303.863 113.877 304.26 112.919 304.967 112.212C305.673 111.505 306.631 111.108 307.63 111.108C308.628 111.108 309.586 111.505 310.292 112.212C310.999 112.919 311.396 113.877 311.396 114.877ZM330.227 114.877C330.227 115.876 329.83 116.834 329.124 117.541C328.417 118.248 327.46 118.645 326.461 118.645C325.462 118.645 324.504 118.248 323.798 117.541C323.092 116.834 322.694 115.876 322.694 114.877C322.694 113.877 323.092 112.919 323.798 112.212C324.504 111.505 325.462 111.108 326.461 111.108C327.46 111.108 328.417 111.505 329.124 112.212C329.83 112.919 330.227 113.877 330.227 114.877Z" fill="white"/>
<path d="M293.506 108.282C293.506 106.862 294.072 105.632 295.191 104.785C296.276 103.963 297.788 103.571 299.588 103.571H301.793L298.236 83.9958C297.992 83.063 296.735 80.961 293.506 80.961C292.986 80.961 292.565 80.5392 292.565 80.0189C292.565 79.4986 292.986 79.0768 293.506 79.0768C297.201 79.0768 299.11 81.2323 299.819 82.8452H331.168C331.448 82.8452 331.713 82.9693 331.892 83.1838C332.07 83.3981 332.145 83.6808 332.095 83.9554L328.329 104.682C328.248 105.13 327.857 105.456 327.402 105.456H299.588C298.03 105.456 296.971 105.799 296.326 106.287C295.715 106.75 295.389 107.405 295.389 108.282C295.389 109.159 295.715 109.814 296.326 110.276C296.971 110.765 298.03 111.108 299.588 111.108L326.461 111.108C326.981 111.108 327.402 111.53 327.402 112.05C327.402 112.571 326.981 112.992 326.461 112.992L299.588 112.992C297.788 112.992 296.276 112.6 295.191 111.779C294.072 110.932 293.506 109.701 293.506 108.282ZM303.708 103.571H326.616L330.039 84.7294H300.285L303.708 103.571Z" fill="white"/>
<defs>
<linearGradient id="paint0_linear_46_972" x1="147.246" y1="144.047" x2="237.866" y2="176.152" gradientUnits="userSpaceOnUse">
<stop stop-color="#19350C"/>
<stop offset="0.5" stop-color="#687D31"/>
</linearGradient>
<linearGradient id="paint1_linear_46_972" x1="144.672" y1="151.07" x2="223.084" y2="183.127" gradientUnits="userSpaceOnUse">
<stop stop-color="#19350C"/>
<stop offset="0.432692" stop-color="#687D31"/>
</linearGradient>
<linearGradient id="paint2_linear_46_972" x1="151.375" y1="160.947" x2="201.28" y2="192.251" gradientUnits="userSpaceOnUse">
<stop stop-color="#19350C"/>
<stop offset="0.225962" stop-color="#687D31"/>
</linearGradient>
<linearGradient id="paint3_linear_46_972" x1="263.917" y1="136.491" x2="210.542" y2="149.469" gradientUnits="userSpaceOnUse">
<stop stop-color="#B38421"/>
<stop offset="0.697115" stop-color="#E3B944"/>
</linearGradient>
<linearGradient id="paint4_linear_46_972" x1="265.328" y1="144.016" x2="219.708" y2="161.126" gradientUnits="userSpaceOnUse">
<stop stop-color="#B38421"/>
<stop offset="0.629808" stop-color="#E3B944"/>
</linearGradient>
<linearGradient id="paint5_linear_46_972" x1="263.564" y1="151.07" x2="227.513" y2="174.53" gradientUnits="userSpaceOnUse">
<stop stop-color="#B48521"/>
<stop offset="0.216346" stop-color="#E3B944"/>
</linearGradient>
<linearGradient id="paint6_linear_46_972" x1="204.647" y1="42.4278" x2="204.647" y2="212.682" gradientUnits="userSpaceOnUse">
<stop stop-color="#678426"/>
<stop offset="1" stop-color="#184422"/>
</linearGradient>
</defs>
</svg>
