<svg width="36" height="20" viewBox="0 0 36 20" fill="none" xmlns="http://www.w3.org/2000/svg">
<path fill-rule="evenodd" clip-rule="evenodd" d="M0.151655 18.7652C0.30305 19.1308 0.559444 19.4432 0.888409 19.663C1.21737 19.8828 1.60413 20 1.99976 20H34.0016C34.397 19.9997 34.7833 19.8822 35.1119 19.6623C35.4405 19.4425 35.6966 19.1303 35.8479 18.765C35.9991 18.3998 36.0387 17.9979 35.9617 17.6101C35.8846 17.2223 35.6944 16.8661 35.4151 16.5864L19.4141 0.584959C19.0391 0.210392 18.5307 0 18.0007 0C17.4707 0 16.9623 0.210392 16.5873 0.584959L0.586347 16.5864C0.306619 16.8659 0.116028 17.2221 0.0386573 17.6099C-0.0387137 17.9977 0.000608798 18.3997 0.151655 18.7652Z" fill="#687D31"/>
</svg>
